<svg xmlns="http://www.w3.org/2000/svg" width="50px" height="50px" viewBox="0 0 67.93 67.93">
  <defs>
    <style>
      .cls-1 {
        fill: #036b6b;
      }

      .cls-2 {
        fill: #fff8f8;
        font-size: 37px;
        font-family: Pacifico-Regular, Pacifico;
      }

      .cls-3, .cls-4 {
        stroke: none;
      }

      .cls-4 {
        fill: #707070;
      }
    </style>
  </defs>
  <g id="logo" transform="translate(-651 -21)">
    <g id="Path_3" data-name="Path 3" class="cls-1" transform="translate(651 21)">
      <path class="cls-3" d="M 33.96484375 65.9296875 C 29.64873313903809 65.9296875 25.46279907226563 65.08482360839844 21.52330017089844 63.41855621337891 C 17.71718788146973 61.80870056152344 14.29852199554443 59.50364303588867 11.36228847503662 56.56739807128906 C 8.426043510437012 53.63116455078125 6.120988368988037 50.21249771118164 4.511132717132568 46.40638732910156 C 2.844866037368774 42.46688842773438 1.999999284744263 38.28095626831055 1.999999284744263 33.96484375 C 1.999999284744263 29.64873313903809 2.844866037368774 25.46279907226563 4.511132717132568 21.52330017089844 C 6.120988368988037 17.71718788146973 8.426043510437012 14.29852199554443 11.36228847503662 11.36228847503662 C 14.29852199554443 8.426043510437012 17.71718788146973 6.120988368988037 21.52330017089844 4.511132717132568 C 25.46279907226563 2.844866037368774 29.64873313903809 1.999999284744263 33.96484375 1.999999284744263 C 38.28095626831055 1.999999284744263 42.46688842773438 2.844866037368774 46.40638732910156 4.511132717132568 C 50.21249771118164 6.120988368988037 53.63116455078125 8.426043510437012 56.56739807128906 11.36228847503662 C 59.50364303588867 14.29852199554443 61.80870056152344 17.71718788146973 63.41855621337891 21.52330017089844 C 65.08482360839844 25.46279907226563 65.9296875 29.64873313903809 65.9296875 33.96484375 C 65.9296875 38.28095626831055 65.08482360839844 42.46688842773438 63.41855621337891 46.40638732910156 C 61.80870056152344 50.21249771118164 59.50364303588867 53.63116455078125 56.56739807128906 56.56739807128906 C 53.63116455078125 59.50364303588867 50.21249771118164 61.80870056152344 46.40638732910156 63.41855621337891 C 42.46688842773438 65.08482360839844 38.28095626831055 65.9296875 33.96484375 65.9296875 Z"/>
      <path class="cls-4" d="M 33.96484375 3.999992370605469 C 29.9178581237793 3.999992370605469 25.99404525756836 4.791706085205078 22.30240631103516 6.353145599365234 C 18.73468017578125 7.862155914306641 15.52970504760742 10.02328109741211 12.77649307250977 12.77649307250977 C 10.02328109741211 15.52970504760742 7.862155914306641 18.73468017578125 6.353145599365234 22.30240631103516 C 4.791706085205078 25.99404525756836 3.999992370605469 29.9178581237793 3.999992370605469 33.96484375 C 3.999992370605469 38.01183319091797 4.791706085205078 41.93564605712891 6.353145599365234 45.62728118896484 C 7.862155914306641 49.19499206542969 10.02328109741211 52.39997100830078 12.77649307250977 55.15318298339844 C 15.52970504760742 57.90639495849609 18.73468017578125 60.06752014160156 22.30240631103516 61.57654571533203 C 25.99404525756836 63.13796997070313 29.9178581237793 63.92967987060547 33.96484375 63.92967987060547 C 38.01183319091797 63.92967987060547 41.93564605712891 63.13796997070313 45.62728118896484 61.57654571533203 C 49.19499206542969 60.06752014160156 52.39997100830078 57.90639495849609 55.15318298339844 55.15318298339844 C 57.90639495849609 52.39997100830078 60.06752014160156 49.19499206542969 61.57654571533203 45.62728118896484 C 63.13796997070313 41.93564605712891 63.92967987060547 38.01183319091797 63.92967987060547 33.96484375 C 63.92967987060547 29.9178581237793 63.13796997070313 25.99404525756836 61.57654571533203 22.30240631103516 C 60.06752014160156 18.73468017578125 57.90639495849609 15.52970504760742 55.15318298339844 12.77649307250977 C 52.39997100830078 10.02328109741211 49.19499206542969 7.862155914306641 45.62728118896484 6.353145599365234 C 41.93564605712891 4.791706085205078 38.01183319091797 3.999992370605469 33.96484375 3.999992370605469 M 33.96484375 -7.62939453125e-06 C 52.72310638427734 -7.62939453125e-06 67.92967987060547 15.20658111572266 67.92967987060547 33.96484375 C 67.92967987060547 52.72310638427734 52.72310638427734 67.92967987060547 33.96484375 67.92967987060547 C 15.20658111572266 67.92967987060547 -7.62939453125e-06 52.72310638427734 -7.62939453125e-06 33.96484375 C -7.62939453125e-06 15.20658111572266 15.20658111572266 -7.62939453125e-06 33.96484375 -7.62939453125e-06 Z"/>
    </g>
    <text id="iK" class="cls-2" transform="translate(661 70)"><tspan x="0" y="0">iK</tspan></text>
  </g>
</svg>
